<svg xmlns="http://www.w3.org/2000/svg" fill="none" viewBox="0 0 1000 1000"><path fill="#fff" stroke="#000" stroke-width="15" d="m249.061 622.188-7.245 1.941 1.942 7.244 15.571 58.113 1.941 7.245 7.244-1.941 192.5-51.58c30.208-8.095 54.902-8.88 74.513-3.195 20.808 6.21 36.929 16.386 48.752 30.338 12.265 14.473 20.485 29.83 24.841 46.085 6.296 23.499 4.059 44.719-6.396 64.123l-.052.097-.05.098c-9.36 18.665-32.222 34.056-71.767 44.653l-212.112 56.835-7.245 1.941 1.941 7.245 15.572 58.113 1.941 7.244 7.244-1.941 232.452-62.285c32.429-8.69 57.985-22.751 76.038-42.593 17.917-19.071 29.061-41.355 33.292-66.709 4.67-25.224 3.295-51.428-3.963-78.517-6.879-25.672-18.3-48.136-34.319-67.264-11.321-13.519-25.16-24.037-41.401-31.589l198.501-53.188 7.244-1.941-1.941-7.244-15.571-58.113-1.941-7.245-7.245 1.941z"/><path fill="#fff" stroke="#000" stroke-width="15" d="m132.444 186.935-7.245 1.941 1.941 7.244 13.625 50.849 1.941 7.245 7.245-1.941 169.708-45.474c25.45-6.819 46.47-7.381 63.447-2.453 17.586 5.104 31.17 13.387 41.145 24.636l.029.032.028.031c10.953 12.073 17.949 24.429 21.333 37.058 5.256 19.617 3.718 37.218-4.234 53.222-7.5 15.092-23.942 26.95-51.725 34.394l-198.31 53.138-7.245 1.941 1.941 7.244 13.625 50.849 1.941 7.245 7.245-1.941 174.157-46.666c21.979-5.889 41.069-6.647 57.494-2.752 16.828 4.389 30.544 12.211 41.397 23.371 11.017 11.331 18.545 24.586 22.642 39.877 5.256 19.617 3.718 37.217-4.235 53.222-3.527 7.099-9.288 12.365-17.953 16.867-8.845 4.594-20.273 8.169-34.668 12.026l-198.849 53.281-7.133 1.912 1.8 7.161 14.9 59.267 1.857 7.387 7.358-1.972 204.758-54.864c29.585-7.928 50.91-23.59 66.368-41.18 15.492-17.627 25.182-37.666 28.905-60.012 3.777-21.57 2.792-43.079-2.935-64.45-3.744-13.974-10.158-28.01-19.11-42.101-8.565-14.022-19.506-26.195-32.772-36.503-9.682-7.852-20.525-13.657-32.47-17.429 13.888-15.209 23.038-32.809 27.291-52.733 5.082-23.806 4.457-47.557-1.866-71.156-5.53-20.636-15.643-39.502-30.219-56.56l-.022-.025-.022-.026c-10.307-11.845-22.85-21.128-37.516-27.894l28.477-9.621 6.665-2.252-1.821-6.795-11.922-44.493-1.941-7.244-7.244 1.941z"/></svg>