<svg xmlns="http://www.w3.org/2000/svg" fill="none" viewBox="0 0 1000 1000"><path fill="#fff" stroke="#000" stroke-width="15" d="m408.982 763.836-3.75 6.495 6.495 3.75 52.103 30.081 6.495 3.75 3.75-6.495 99.645-172.59c15.637-27.084 32.542-45.101 50.429-54.948 19.106-10.322 37.7-14.526 55.926-13.021 18.907 1.562 35.578 6.608 50.152 15.023 21.068 12.163 34.491 28.75 40.819 49.864l.032.105.034.105c6.58 19.816 1.297 46.865-19.173 82.321L642.142 898.451l-3.75 6.495 6.495 3.75 52.103 30.081 6.495 3.75 3.75-6.495 120.326-208.411c16.786-29.074 24.914-57.088 23.649-83.884-.816-26.154-8.693-49.792-23.629-70.711-14.535-21.138-34.035-38.695-58.322-52.718-23.018-13.289-46.978-21.096-71.83-23.295-17.565-1.554-34.787.793-51.612 6.938L748.569 325.98l3.75-6.495-6.496-3.75-52.102-30.082-6.495-3.75-3.75 6.495z"/><path fill="#fff" stroke="#000" stroke-width="15" d="M18.75 538.522 15 545.018l6.494 3.75 45.59 26.321 6.495 3.75 3.75-6.495 87.848-152.157c13.174-22.817 27.639-38.078 43.128-46.598 16.045-8.826 31.507-12.575 46.515-11.674l.043.002.042.003c16.282.791 29.965 4.582 41.288 11.119 17.589 10.155 28.947 23.687 34.64 40.628 5.368 15.974 2.127 35.985-12.254 60.895l-102.653 177.8-3.75 6.496 6.495 3.75 45.59 26.321 6.495 3.75 3.75-6.495 90.151-156.146c11.377-19.705 24.339-33.74 38.708-42.6 15.003-8.796 30.232-12.964 45.798-12.746 15.802.222 30.498 4.272 44.207 12.187 17.588 10.155 28.946 23.687 34.639 40.628 2.526 7.514 2.176 15.311-.768 24.621-3.006 9.504-8.559 20.112-16.01 33.018L408.299 763.429l-3.692 6.395 6.337 3.791 52.443 31.373 6.537 3.91 3.809-6.597 105.99-183.581c15.315-26.525 19.319-52.679 17.812-76.048-1.511-23.418-8.828-44.44-21.997-62.873-12.581-17.924-28.487-32.436-47.648-43.499-12.529-7.233-26.989-12.622-43.283-16.256-15.972-3.859-32.315-4.73-48.985-2.638-12.399 1.294-24.171 4.856-35.284 10.635-.934-20.575-6.909-39.49-17.99-56.586-13.239-20.427-30.477-36.779-51.635-48.994-18.501-10.682-38.992-16.871-61.361-18.626l-.034-.003-.033-.002c-15.664-1.088-31.098 1.218-46.253 6.803l13.334-26.94 3.12-6.304-6.092-3.518-39.891-23.031-6.495-3.75-3.75 6.495z"/></svg>