<svg xmlns="http://www.w3.org/2000/svg" fill="none" viewBox="0 0 1000 1000"><path fill="#fff" stroke="#000" stroke-width="15" d="m778.432 519.598 7.244 1.942 1.941-7.245 15.572-58.113 1.941-7.244-7.244-1.941-192.5-51.581c-30.208-8.094-51.986-19.76-66.128-34.489-14.915-15.783-23.788-32.655-27.051-50.65-3.385-18.667-2.826-36.076 1.53-52.331 6.296-23.499 18.844-40.757 37.6-52.334l.094-.058.092-.061c17.438-11.483 44.933-13.382 84.478-2.786l212.113 56.835 7.244 1.941 1.941-7.244 15.572-58.113 1.941-7.245-7.245-1.941-232.452-62.285c-32.428-8.689-61.591-9.289-87.146-1.132-25.053 7.557-45.846 21.284-62.186 41.125-16.657 19.51-28.568 42.89-35.827 69.979-6.879 25.673-8.219 50.837-3.911 75.412 3.045 17.368 9.77 33.396 20.06 48.057l-198.501-53.188-7.244-1.941-1.941 7.244-15.572 58.113-1.941 7.245 7.245 1.941z"/><path fill="#fff" stroke="#000" stroke-width="15" d="m661.799 954.846 7.244 1.941 1.942-7.245 13.625-50.849 1.941-7.244-7.245-1.941-169.708-45.474c-25.45-6.819-43.934-16.842-56.173-29.598-12.679-13.214-20.301-27.178-23.315-41.908l-.009-.042-.009-.041c-3.449-15.932-3.329-30.131.054-42.759 5.257-19.618 15.389-34.091 30.278-43.975 14.041-9.32 34.209-11.369 61.992-3.925l198.311 53.138 7.244 1.941 1.942-7.245 13.624-50.849 1.942-7.244-7.245-1.941-174.158-46.666c-21.978-5.889-38.89-14.777-51.167-26.363-12.379-12.215-20.346-25.847-24.164-40.938-3.876-15.321-3.768-30.565.329-45.855 5.257-19.618 15.389-34.091 30.278-43.975 6.605-4.384 14.227-6.065 23.982-5.63 9.957.443 21.642 3.062 36.037 6.919l198.848 53.281 7.133 1.911 2.022-7.102 16.73-58.776 2.085-7.326-7.358-1.972-204.757-54.864c-29.586-7.928-55.885-5.026-78.067 2.478-22.23 7.52-40.641 20.029-55.039 37.519-14.056 16.792-23.957 35.912-29.683 57.283-3.745 13.974-5.208 29.337-4.501 46.016.407 16.426 3.796 32.439 10.13 47.998 4.459 11.642 10.947 22.091 19.405 31.329-19.632 6.228-36.355 16.895-50.001 32.023-16.304 18.075-27.638 38.958-33.961 62.556-5.529 20.636-6.204 42.031-2.11 64.092l.006.033.007.033c3.004 15.411 9.225 29.722 18.543 42.915l-29.473-5.906-6.898-1.383-1.82 6.795-11.922 44.493-1.941 7.245 7.244 1.941z"/></svg>