<svg xmlns="http://www.w3.org/2000/svg" fill="none" viewBox="0 0 1000 1000"><path fill="#fff" stroke="#000" stroke-width="15" d="m622.221 750.91 1.941 7.244 7.245-1.941 58.113-15.571 7.244-1.941-1.941-7.245-51.58-192.499c-8.094-30.208-8.88-54.902-3.195-74.513 6.211-20.809 16.386-36.929 30.338-48.753 14.474-12.264 29.83-20.485 46.085-24.84 23.499-6.297 44.719-4.059 64.123 6.396l.097.052.098.049c18.665 9.36 34.057 32.222 44.653 71.768l56.835 212.112 1.941 7.244 7.245-1.941 58.113-15.571 7.244-1.941-1.941-7.245-62.285-232.452c-8.689-32.428-22.751-57.984-42.593-76.037-19.071-17.917-41.355-29.061-66.708-33.292-25.225-4.67-51.429-3.296-78.517 3.963-25.673 6.879-48.136 18.3-67.265 34.319-13.518 11.321-24.037 25.159-31.588 41.4l-53.188-198.5-1.942-7.244-7.244 1.941-58.113 15.571-7.245 1.941 1.942 7.245z"/><path fill="#fff" stroke="#000" stroke-width="15" d="m186.966 867.525 1.941 7.245 7.245-1.942 50.849-13.625 7.244-1.941-1.941-7.244-45.473-169.709c-6.819-25.449-7.382-46.469-2.454-63.446 5.104-17.587 13.387-31.171 24.636-41.146l.032-.028.031-.029c12.073-10.953 24.429-17.948 37.058-21.332 19.617-5.256 37.218-3.719 53.222 4.234 15.092 7.5 26.95 23.941 34.395 51.724l53.137 198.311 1.941 7.245 7.245-1.942 50.849-13.624 7.244-1.942-1.941-7.244-46.666-174.158c-5.889-21.978-6.647-41.068-2.752-57.494 4.389-16.828 12.211-30.544 23.372-41.396 11.33-11.017 24.586-18.545 39.876-22.642 19.617-5.256 37.218-3.719 53.222 4.234 7.1 3.528 12.365 9.288 16.867 17.954 4.595 8.845 8.169 20.273 12.026 34.668l53.281 198.849 1.912 7.133 7.162-1.801 59.266-14.899 7.387-1.857-1.971-7.358-54.865-204.758c-7.927-29.585-23.59-50.91-41.179-66.369-17.628-15.491-37.666-25.182-60.013-28.905-21.57-3.776-43.079-2.791-64.45 2.935-13.974 3.745-28.01 10.159-42.101 19.111-14.022 8.565-26.195 19.506-36.503 32.772-7.852 9.682-13.657 20.525-17.429 32.469-15.209-13.888-32.809-23.037-52.733-27.291-23.806-5.082-47.557-4.456-71.156 1.867-20.636 5.53-39.501 15.643-56.559 30.219l-.026.022-.025.022c-11.845 10.307-21.128 22.85-27.895 37.516l-9.621-28.477-2.252-6.665-6.795 1.821-44.492 11.922-7.245 1.941 1.941 7.244z"/></svg>