<svg xmlns="http://www.w3.org/2000/svg" fill="none" viewBox="0 0 1000 1000"><path fill="#fff" stroke="#000" stroke-width="15" d="M553.105 773.988v7.5h75.164v-206.79c0-31.274 5.632-55.33 16.199-72.802 11.385-18.492 25.385-31.429 41.922-39.239 17.155-8.1 34.116-12.066 50.945-12.066 24.327 0 44.245 7.653 60.282 22.774l.08.076.082.073c15.606 13.872 24.556 39.938 24.556 80.879v227.095h75.164V533.335c0-33.572-6.968-61.896-21.462-84.47-13.783-22.242-32.424-38.774-55.819-49.423-23.156-11.039-48.823-16.494-76.867-16.494-26.578 0-51.232 5.219-73.855 15.741-15.988 7.436-29.729 18.081-41.227 31.814V217.5h-75.164z"/><path fill="#fff" stroke="#000" stroke-width="15" d="M102.5 773.98v7.5h67.643V598.285c0-26.347 4.897-46.796 14.051-61.92 9.482-15.666 20.998-26.643 34.446-33.367l.038-.019.038-.02c14.496-7.455 28.241-11.014 41.316-11.014 20.309 0 36.912 6.041 50.313 17.865 12.636 11.15 19.835 30.101 19.835 58.864V781.48h67.643V593.679c0-22.754 4.208-41.39 12.222-56.247 8.595-15.119 19.7-26.343 33.289-33.937 13.796-7.709 28.548-11.55 44.378-11.55 20.309 0 36.912 6.041 50.312 17.865 5.945 5.245 9.54 12.172 11.646 21.707 2.149 9.733 2.643 21.697 2.643 36.6v213.248l7.384.114 61.103.948 7.617.118V562.947c0-30.629-9.61-55.281-22.599-74.766-13.017-19.526-29.865-34.072-50.486-43.452-19.858-9.231-40.889-13.846-63.014-13.846-14.467 0-29.685 2.563-45.613 7.563-15.761 4.644-30.351 12.061-43.741 22.207-10.09 7.32-18.504 16.292-25.239 26.852-11.096-17.351-25.728-30.744-43.873-40.009-21.679-11.07-44.783-16.613-69.214-16.613-21.364 0-42.204 4.885-62.453 14.55l-.031.014-.03.015c-14.109 6.891-26.322 16.604-36.654 29.019l-1.923-29.998-.45-7.02H102.5z"/></svg>