<svg xmlns="http://www.w3.org/2000/svg" fill="none" viewBox="0 0 1000 1000"><path fill="#fff" stroke="#000" stroke-width="15" d="m710.759 316.966 6.496-3.75-3.75-6.495-30.082-52.103-3.75-6.495-6.495 3.75-172.59 99.645c-27.084 15.637-50.733 22.787-71.148 22.372-21.706-.614-39.911-6.27-54.943-16.687-15.593-10.806-27.507-23.511-35.922-38.086-12.164-21.068-15.494-42.144-10.418-63.593l.025-.107.023-.108c4.21-20.451 22.309-41.235 57.765-61.705L576.144 83.806l6.496-3.75-3.75-6.495-30.082-52.103-3.75-6.495-6.495 3.75L330.152 139.04c-29.075 16.786-50.12 36.983-62.422 60.822-12.372 23.058-17.368 47.467-14.893 73.051 2.018 25.574 10.128 50.529 24.15 74.816 13.289 23.018 30.135 41.76 50.559 56.09 14.434 10.128 30.523 16.706 48.165 19.798l-177.97 102.751-6.495 3.75 3.75 6.495 30.081 52.103 3.75 6.495 6.495-3.75z"/><path fill="#fff" stroke="#000" stroke-width="15" d="m936.056 707.204 6.495-3.75-3.75-6.495-26.322-45.59-3.75-6.495-6.495 3.75-152.156 87.848c-22.817 13.173-42.975 19.157-60.65 18.791-18.308-.379-33.573-4.863-46.119-13.147l-.036-.024-.036-.023c-13.704-8.826-23.659-18.951-30.197-30.274-10.154-17.588-13.224-34.987-9.685-52.504 3.338-16.519 16.151-32.228 41.06-46.61l177.801-102.653 6.495-3.75-3.75-6.495-26.321-45.59-3.75-6.496-6.496 3.75-156.145 90.151c-19.706 11.377-37.949 17.05-54.823 17.539-17.39.116-32.663-3.889-46.034-11.861-13.575-8.093-24.277-18.948-32.192-32.657-10.154-17.589-13.224-34.987-9.685-52.505 1.571-7.771 5.772-14.348 12.977-20.938 7.354-6.728 17.468-13.138 30.374-20.59l178.283-102.931 6.395-3.693-3.593-6.452-29.731-53.39-3.706-6.655-6.596 3.809-183.581 105.99c-26.526 15.314-43.07 35.962-53.449 56.954-10.402 21.036-14.575 42.9-12.388 65.448 1.935 21.813 8.453 42.334 19.516 61.495 7.233 12.529 17.062 24.426 29.356 35.72 11.902 11.328 25.621 20.254 41.103 26.777 11.384 5.079 23.36 7.88 35.874 8.432-9.479 18.285-13.761 37.653-12.713 57.999 1.253 24.31 8.004 47.09 20.22 68.248 10.682 18.502 25.333 34.107 43.827 46.812l.028.019.028.019c13.022 8.773 27.54 14.493 43.457 17.234l-25.016 16.663-5.855 3.9 3.517 6.092 23.031 39.892 3.75 6.495 6.496-3.75z"/></svg>