<svg xmlns="http://www.w3.org/2000/svg" fill="none" viewBox="0 0 1000 1000"><path fill="#fff" stroke="#000" stroke-width="15" d="m750.943 377.75 7.245-1.941-1.942-7.245-15.571-58.113-1.941-7.244-7.245 1.941-192.499 51.58c-30.208 8.094-54.902 8.88-74.513 3.195-20.809-6.211-36.929-16.386-48.752-30.338-12.265-14.474-20.485-29.83-24.841-46.086-6.296-23.498-4.059-44.718 6.396-64.122l.052-.097.049-.099c9.361-18.664 32.222-34.056 71.768-44.652l212.112-56.835 7.245-1.942-1.941-7.244-15.572-58.113-1.941-7.245-7.244 1.942-232.452 62.285c-32.429 8.689-57.985 22.751-76.038 42.593-17.917 19.07-29.061 41.355-33.292 66.708-4.67 25.225-3.295 51.428 3.963 78.517 6.879 25.673 18.3 48.136 34.319 67.264 11.321 13.519 25.159 24.037 41.401 31.589l-198.501 53.188-7.244 1.941 1.941 7.245 15.571 58.113 1.941 7.244 7.245-1.941z"/><path fill="#fff" stroke="#000" stroke-width="15" d="m867.56 813.003 7.245-1.941-1.941-7.245-13.625-50.849-1.942-7.244-7.244 1.941-169.708 45.473c-25.45 6.819-46.47 7.381-63.447 2.454-17.587-5.105-31.17-13.387-41.145-24.636l-.029-.032-.028-.032c-10.953-12.072-17.949-24.428-21.333-37.057-5.256-19.618-3.719-37.218 4.234-53.222 7.5-15.092 23.942-26.951 51.724-34.395l198.311-53.137 7.245-1.941-1.941-7.245-13.625-50.849-1.941-7.244-7.245 1.941-174.158 46.665c-21.978 5.889-41.068 6.648-57.494 2.753-16.827-4.39-30.543-12.211-41.396-23.372-11.017-11.33-18.545-24.586-22.642-39.876-5.256-19.617-3.718-37.218 4.235-53.222 3.527-7.1 9.288-12.366 17.953-16.867 8.845-4.595 20.273-8.169 34.668-12.026l198.849-53.282 7.133-1.911-1.801-7.162-14.899-59.266-1.857-7.387-7.358 1.971L527.6 359.626c-29.585 7.927-50.91 23.589-66.368 41.179-15.492 17.628-25.182 37.666-28.905 60.012-3.777 21.571-2.792 43.08 2.934 64.451 3.745 13.974 10.159 28.01 19.111 42.101 8.565 14.022 19.506 26.195 32.772 36.502 9.682 7.853 20.525 13.658 32.469 17.43-13.888 15.209-23.037 32.809-27.29 52.733-5.083 23.805-4.457 47.557 1.866 71.155 5.53 20.637 15.643 39.502 30.219 56.56l.022.026.022.025c10.307 11.845 22.85 21.128 37.516 27.895l-28.477 9.621-6.665 2.251 1.821 6.795 11.922 44.493 1.941 7.245 7.244-1.941z"/></svg>