<svg xmlns="http://www.w3.org/2000/svg" fill="none" viewBox="0 0 1000 1000"><path fill="#fff" stroke="#000" stroke-width="15" d="m236.139 408.945-6.495-3.75-3.75 6.495-30.082 52.103-3.75 6.495 6.495 3.75 172.591 99.645c27.083 15.637 45.1 32.542 54.948 50.429 10.322 19.106 14.526 37.7 13.02 55.926-1.562 18.907-6.607 35.578-15.022 50.152-12.164 21.068-28.75 34.491-49.864 40.819l-.106.032-.104.034c-19.816 6.579-46.866 1.297-82.321-19.173L101.524 642.105l-6.495-3.75-3.75 6.495-30.082 52.103-3.75 6.495 6.495 3.75 208.411 120.326c29.075 16.786 57.089 24.914 83.884 23.648 26.155-.815 49.792-8.692 70.711-23.628 21.139-14.535 38.696-34.035 52.718-58.322 13.289-23.018 21.097-46.978 23.296-71.83 1.554-17.565-.794-34.787-6.938-51.612l177.971 102.752 6.495 3.75 3.75-6.496 30.081-52.102 3.75-6.496-6.495-3.75z"/><path fill="#fff" stroke="#000" stroke-width="15" d="m461.448 18.714-6.495-3.75-3.75 6.495-26.321 45.59-3.75 6.495 6.495 3.75 152.156 87.848c22.818 13.173 38.078 27.639 46.599 43.128 8.826 16.045 12.575 31.507 11.674 46.515l-.003.042-.002.043c-.792 16.282-4.582 29.965-11.119 41.288-10.155 17.588-23.688 28.946-40.628 34.64-15.974 5.368-35.986 2.127-60.895-12.254L347.608 215.891l-6.495-3.75-3.75 6.495-26.321 45.59-3.75 6.495 6.495 3.75 156.145 90.151c19.706 11.376 33.741 24.339 42.601 38.708 8.795 15.003 12.963 30.232 12.745 45.797-.221 15.803-4.271 30.499-12.186 44.208-10.155 17.588-23.688 28.946-40.628 34.639-7.515 2.526-15.311 2.176-24.622-.768-9.503-3.006-20.111-8.559-33.018-16.01L236.541 408.264l-6.395-3.692-3.791 6.337-31.372 52.443-3.91 6.537 6.596 3.808L381.25 579.688c26.526 15.314 52.68 19.319 76.048 17.811 23.419-1.51 44.441-8.827 62.874-21.996 17.923-12.582 32.436-28.487 43.498-47.648 7.234-12.529 12.623-26.989 16.257-43.283 3.859-15.972 4.73-32.316 2.638-48.985-1.294-12.399-4.856-24.171-10.635-35.284 20.575-.934 39.489-6.909 56.585-17.99 20.427-13.24 36.78-30.477 48.995-51.635 10.682-18.502 16.871-38.992 18.626-61.361l.003-.034.002-.033c1.087-15.664-1.218-31.098-6.804-46.253l26.94 13.334 6.305 3.12 3.517-6.092 23.031-39.891 3.75-6.496-6.495-3.75z"/></svg>