<svg xmlns="http://www.w3.org/2000/svg" fill="none" viewBox="0 0 1000 1000"><path fill="#fff" stroke="#000" stroke-width="15" d="m221.572 480.339-7.244-1.941-1.942 7.244-15.571 58.113-1.941 7.245 7.244 1.941 192.5 51.58c30.208 8.094 51.986 19.761 66.128 34.49 14.915 15.783 23.788 32.655 27.051 50.649 3.385 18.667 2.826 36.077-1.53 52.332-6.296 23.498-18.844 40.757-37.6 52.334l-.094.058-.092.06c-17.438 11.484-44.933 13.383-84.478 2.787L151.89 740.395l-7.244-1.941-1.941 7.244-15.572 58.114-1.941 7.244 7.244 1.941 232.453 62.286c32.428 8.689 61.591 9.289 87.146 1.131 25.052-7.556 45.845-21.283 62.186-41.124 16.657-19.511 28.568-42.891 35.827-69.98 6.879-25.672 8.219-50.837 3.911-75.412-3.045-17.368-9.77-33.396-20.06-48.057L732.4 695.029l7.244 1.942 1.941-7.245 15.572-58.113 1.941-7.244-7.245-1.942z"/><path fill="#fff" stroke="#000" stroke-width="15" d="m338.205 45.092-7.245-1.941-1.941 7.244-13.625 50.849-1.941 7.245 7.245 1.941 169.708 45.473c25.449 6.819 43.934 16.842 56.173 29.598 12.678 13.214 20.301 27.179 23.315 41.908l.009.042.009.042c3.449 15.932 3.329 30.13-.055 42.759-5.256 19.617-15.388 34.091-30.278 43.975-14.04 9.32-34.208 11.368-61.991 3.924l-198.311-53.137-7.244-1.941-1.942 7.244-13.625 50.849-1.941 7.245 7.245 1.941 174.157 46.665c21.979 5.889 38.891 14.778 51.168 26.364 12.379 12.215 20.346 25.846 24.164 40.938 3.876 15.321 3.768 30.564-.329 45.855-5.257 19.617-15.389 34.091-30.278 43.974-6.605 4.385-14.227 6.065-23.982 5.631-9.958-.444-21.642-3.062-36.037-6.919l-198.848-53.282-7.133-1.911-2.022 7.103-16.73 58.775-2.085 7.327 7.358 1.971 204.757 54.865c29.586 7.927 55.885 5.026 78.067-2.478 22.23-7.52 40.641-20.029 55.039-37.52 14.056-16.792 23.957-35.912 29.683-57.283 3.744-13.974 5.208-29.336 4.501-46.016-.407-16.426-3.796-32.438-10.131-47.998-4.458-11.641-10.946-22.09-19.404-31.329 19.632-6.227 36.355-16.894 50.001-32.023 16.304-18.075 27.638-38.957 33.961-62.556 5.529-20.636 6.204-42.03 2.11-64.091l-.006-.033-.007-.033c-3.004-15.412-9.225-29.723-18.543-42.916l29.473 5.907 6.898 1.382 1.82-6.795 11.922-44.493 1.941-7.244-7.244-1.941z"/></svg>