<svg xmlns="http://www.w3.org/2000/svg" fill="none" viewBox="0 0 1000 1000"><path fill="#fff" stroke="#000" stroke-width="15" d="m656.213 268.653 5.303-5.303-5.303-5.303-42.542-42.542-5.303-5.303-5.303 5.303-140.92 140.919c-22.114 22.114-43.106 35.142-62.932 40.024-21.127 5.026-40.175 4.274-57.39-1.898-17.859-6.402-32.656-15.591-44.556-27.49-17.202-17.202-25.874-36.698-26.522-58.73l-.003-.11-.007-.11c-1.226-20.844 10.877-45.605 39.826-74.554L465.839 78.279l5.303-5.303-5.303-5.303-42.542-42.542-5.304-5.304-5.303 5.304-170.167 170.166c-23.739 23.74-38.84 48.695-44.553 74.906-5.982 25.474-4.49 50.345 4.522 74.417 8.568 24.18 22.86 46.186 42.691 66.016 18.793 18.794 39.916 32.537 63.353 41.093 16.564 6.047 33.807 8.237 51.648 6.657L214.872 603.698l-5.304 5.303 5.304 5.304 42.541 42.541 5.304 5.304 5.303-5.304z"/><path fill="#fff" stroke="#000" stroke-width="15" d="m974.835 587.285 5.303-5.303-5.303-5.303-37.224-37.224-5.303-5.304-5.304 5.304L802.769 663.69c-18.63 18.63-36.553 29.627-53.719 33.848-17.783 4.373-33.688 3.992-47.951-.762l-.041-.014-.04-.013c-15.522-4.979-27.759-12.182-37.004-21.427-14.361-14.361-21.829-30.372-22.944-48.208-1.051-16.82 7.259-35.31 27.597-55.649l145.174-145.174 5.303-5.303-5.303-5.303-37.224-37.224-5.303-5.304-5.304 5.304-127.492 127.492c-16.089 16.089-32.243 26.291-48.415 31.13-16.768 4.613-32.557 4.698-47.536.458-15.206-4.303-28.353-12.019-39.547-23.213-14.36-14.36-21.829-30.372-22.944-48.208-.494-7.913 1.861-15.353 7.115-23.584 5.363-8.402 13.473-17.212 24.01-27.749l145.568-145.568 5.221-5.221-5.14-5.303-42.536-43.876-5.302-5.469-5.386 5.386-149.894 149.893c-21.658 21.658-32.294 45.885-36.887 68.847-4.602 23.012-2.975 45.211 4.974 66.425 7.514 20.569 19.122 38.703 34.767 54.348 10.229 10.23 22.802 19.178 37.6 26.905 14.429 7.861 29.99 12.933 46.633 15.227 12.311 1.959 24.604 1.565 36.834-1.141-4.423 20.115-3.546 39.932 2.732 59.314 7.502 23.157 19.919 43.413 37.195 60.689 15.106 15.107 33.297 26.388 54.449 33.873l.032.011.032.011c14.849 5.104 30.353 6.872 46.437 5.399l-19.851 22.571-4.646 5.282 4.974 4.974 32.571 32.571 5.304 5.304 5.303-5.304z"/></svg>