<svg xmlns="http://www.w3.org/2000/svg" fill="none" viewBox="0 0 1000 1000"><path fill="#fff" stroke="#000" stroke-width="15" d="m343.791 731.284-5.303 5.303 5.303 5.304 42.542 42.541 5.303 5.304 5.303-5.304 140.92-140.919c22.113-22.114 43.106-35.141 62.932-40.024 21.126-5.025 40.175-4.273 57.39 1.898 17.859 6.402 32.656 15.591 44.556 27.491 17.202 17.202 25.874 36.698 26.522 58.73l.003.11.007.11c1.226 20.844-10.877 45.604-39.827 74.553L534.165 921.658l-5.303 5.304 5.303 5.303 42.542 42.542 5.303 5.303 5.304-5.303L757.48 804.64c23.74-23.739 38.841-48.695 44.554-74.905 5.982-25.474 4.49-50.345-4.522-74.417-8.568-24.18-22.86-46.186-42.691-66.017-18.793-18.793-39.916-32.536-63.353-41.093-16.564-6.047-33.807-8.236-51.648-6.656L785.132 396.24l5.303-5.304-5.303-5.303-42.542-42.542-5.303-5.303-5.303 5.303z"/><path fill="#fff" stroke="#000" stroke-width="15" d="m25.169 412.652-5.303 5.303 5.303 5.304 37.224 37.224 5.303 5.303L73 460.483l124.235-124.235c18.63-18.631 36.553-29.627 53.719-33.849 17.783-4.372 33.688-3.991 47.951.763l.041.013.04.013c15.522 4.979 27.759 12.182 37.004 21.427 14.36 14.361 21.829 30.372 22.944 48.209 1.051 16.82-7.259 35.31-27.597 55.648L186.163 573.646l-5.303 5.303 5.303 5.304 37.224 37.224 5.303 5.303 5.304-5.303 127.492-127.492c16.089-16.09 32.243-26.291 48.415-31.131 16.768-4.613 32.557-4.697 47.536-.458 15.206 4.304 28.353 12.02 39.547 23.213 14.36 14.361 21.829 30.372 22.944 48.209.494 7.912-1.861 15.353-7.115 23.584-5.363 8.402-13.473 17.211-24.011 27.749L343.235 730.718l-5.222 5.222 5.141 5.302 42.536 43.876 5.302 5.469 5.386-5.386 149.893-149.893c21.658-21.658 32.295-45.884 36.888-68.847 4.602-23.011 2.975-45.21-4.974-66.424-7.514-20.569-19.122-38.704-34.767-54.348-10.229-10.23-22.802-19.178-37.601-26.906-14.428-7.861-29.99-12.932-46.632-15.226-12.311-1.959-24.604-1.565-36.834 1.141 4.423-20.116 3.546-39.933-2.732-59.314-7.502-23.157-19.919-43.414-37.195-60.689-15.106-15.107-33.297-26.389-54.45-33.873l-.031-.011-.032-.011c-14.849-5.105-30.353-6.872-46.437-5.4l19.851-22.57 4.646-5.283-4.974-4.974-32.571-32.571-5.304-5.303-5.303 5.303z"/></svg>