<svg xmlns="http://www.w3.org/2000/svg" fill="none" viewBox="0 0 1000 1000"><path fill="#fff" stroke="#000" stroke-width="15" d="m763.865 590.993 6.495 3.75 3.75-6.495 30.082-52.103 3.75-6.495-6.496-3.75-172.59-99.645c-27.084-15.637-45.101-32.543-54.948-50.43-10.322-19.105-14.526-37.699-13.02-55.925 1.561-18.907 6.607-35.578 15.022-50.153 12.163-21.068 28.75-34.49 49.864-40.818l.105-.032.105-.035c19.816-6.579 46.866-1.297 82.321 19.173L898.48 357.833l6.495 3.75 3.75-6.495 30.082-52.103 3.75-6.495-6.496-3.75-208.41-120.326c-29.075-16.787-57.089-24.914-83.885-23.649-26.154.815-49.791 8.693-70.71 23.629-21.139 14.534-38.696 34.035-52.718 58.322-13.289 23.017-21.097 46.977-23.296 71.83-1.554 17.564.794 34.787 6.938 51.611L326.009 251.406l-6.495-3.75-3.75 6.495-30.081 52.103-3.75 6.495 6.495 3.75z"/><path fill="#fff" stroke="#000" stroke-width="15" d="m538.556 981.224 6.495 3.75 3.75-6.496 26.321-45.59 3.75-6.495-6.495-3.75-152.156-87.847c-22.818-13.174-38.078-27.64-46.599-43.129-8.826-16.045-12.575-31.507-11.674-46.514l.003-.043.002-.042c.791-16.282 4.582-29.966 11.119-41.289 10.155-17.588 23.687-28.946 40.628-34.639 15.974-5.369 35.985-2.128 60.895 12.254l177.801 102.653 6.495 3.75 3.75-6.495 26.321-45.59 3.75-6.495-6.495-3.75-156.146-90.151c-19.705-11.377-33.74-24.34-42.6-38.708-8.796-15.003-12.963-30.233-12.745-45.798.221-15.802 4.271-30.498 12.186-44.207 10.155-17.588 23.687-28.946 40.628-34.64 7.515-2.525 15.311-2.176 24.621.769 9.504 3.005 20.112 8.559 33.019 16.01l178.282 102.932 6.396 3.692 3.791-6.337 31.372-52.444 3.91-6.536-6.597-3.809-183.58-105.99c-26.526-15.315-52.68-19.319-76.048-17.812-23.419 1.51-44.441 8.828-62.874 21.996-17.923 12.582-32.436 28.488-43.498 47.649-7.234 12.529-12.623 26.989-16.257 43.283-3.859 15.971-4.73 32.315-2.638 48.984 1.294 12.399 4.856 24.171 10.635 35.284-20.575.934-39.489 6.91-56.586 17.991-20.426 13.239-36.779 30.476-48.994 51.634-10.682 18.502-16.871 38.993-18.626 61.362l-.003.033-.002.034c-1.087 15.664 1.218 31.097 6.803 46.252l-26.939-13.333-6.305-3.12-3.517 6.092-23.032 39.891-3.75 6.495 6.496 3.75z"/></svg>