<svg xmlns="http://www.w3.org/2000/svg" fill="none" viewBox="0 0 1000 1000"><path fill="#fff" stroke="#000" stroke-width="15" d="m289.244 682.971-6.495 3.75 3.75 6.495 30.082 52.103 3.75 6.495 6.495-3.75 172.59-99.645c27.084-15.636 50.733-22.787 71.147-22.371 21.707.613 39.912 6.269 54.944 16.686 15.593 10.806 27.507 23.512 35.922 38.086 12.163 21.068 15.494 42.144 10.418 63.593l-.025.107-.023.108c-4.21 20.451-22.309 41.236-57.765 61.706L423.859 916.131l-6.495 3.75 3.75 6.495 30.082 52.103 3.75 6.495 6.495-3.75 208.411-120.326c29.075-16.786 50.12-36.983 62.422-60.821 12.372-23.058 17.368-47.468 14.892-73.052-2.017-25.574-10.127-50.529-24.149-74.816-13.289-23.017-30.135-41.759-50.559-56.09-14.434-10.128-30.523-16.706-48.165-19.797l177.97-102.751 6.495-3.75-3.75-6.496-30.081-52.102-3.75-6.496-6.495 3.75z"/><path fill="#fff" stroke="#000" stroke-width="15" d="m63.948 292.733-6.495 3.75 3.75 6.495 26.321 45.59 3.75 6.495 6.496-3.75 152.156-87.847c22.817-13.174 42.975-19.157 60.65-18.791 18.308.378 33.573 4.863 46.119 13.147l.036.023.036.023c13.704 8.827 23.659 18.951 30.197 30.274 10.154 17.589 13.224 34.987 9.685 52.505-3.338 16.518-16.151 32.228-41.06 46.609L177.788 489.91l-6.495 3.75 3.75 6.495 26.321 45.59 3.75 6.495 6.496-3.75 156.145-90.151c19.705-11.377 37.949-17.05 54.823-17.539 17.39-.115 32.663 3.89 46.034 11.861 13.575 8.093 24.277 18.949 32.191 32.658 10.155 17.588 13.225 34.987 9.685 52.504-1.57 7.771-5.771 14.348-12.976 20.939-7.354 6.728-17.468 13.138-30.374 20.589L288.855 682.283l-6.395 3.692 3.592 6.452 29.732 53.391 3.705 6.655 6.597-3.809 183.581-105.99c26.525-15.315 43.07-35.963 53.449-56.954 10.402-21.036 14.575-42.9 12.388-65.449-1.935-21.813-8.453-42.334-19.516-61.494-7.233-12.529-17.062-24.427-29.356-35.721-11.902-11.327-25.621-20.253-41.103-26.777-11.384-5.078-23.361-7.879-35.874-8.431 9.479-18.286 13.761-37.654 12.713-58-1.253-24.31-8.004-47.09-20.22-68.248-10.682-18.502-25.333-34.107-43.827-46.811l-.028-.019-.028-.019c-13.022-8.774-27.54-14.494-43.458-17.234l25.017-16.664 5.855-3.9-3.517-6.092-23.032-39.891-3.75-6.495-6.495 3.75z"/></svg>