<svg xmlns="http://www.w3.org/2000/svg" fill="none" viewBox="0 0 1000 1000"><path fill="#fff" stroke="#000" stroke-width="15" d="M446.896 225.946v-7.5h-75.163v206.79c0 31.274-5.632 55.33-16.199 72.801-11.385 18.492-25.385 31.43-41.922 39.239-17.155 8.101-34.116 12.067-50.945 12.067-24.327 0-44.245-7.654-60.282-22.775l-.08-.075-.082-.073c-15.606-13.872-24.556-39.939-24.556-80.879V218.446h-75.164v248.152c0 33.573 6.968 61.897 21.462 84.47 13.783 22.243 32.424 38.775 55.819 49.423 23.156 11.04 48.823 16.494 76.867 16.494 26.578 0 51.232-5.218 73.855-15.74 15.988-7.436 29.729-18.081 41.227-31.814v213.003h75.163z"/><path fill="#fff" stroke="#000" stroke-width="15" d="M897.502 225.954v-7.5h-67.643v183.195c0 26.347-4.897 46.796-14.051 61.919-9.482 15.667-20.998 26.644-34.446 33.368l-.038.019-.038.019c-14.496 7.455-28.241 11.014-41.316 11.014-20.309 0-36.912-6.04-50.313-17.864-12.636-11.15-19.835-30.101-19.835-58.864V218.454h-67.643v187.801c0 22.754-4.208 41.39-12.222 56.247-8.595 15.119-19.7 26.343-33.289 33.937-13.796 7.709-28.548 11.549-44.378 11.549-20.309 0-36.912-6.04-50.312-17.864-5.945-5.246-9.54-12.172-11.646-21.708-2.149-9.733-2.643-21.696-2.643-36.599V218.569l-7.384-.115-61.103-.947-7.617-.118v219.598c0 30.629 9.61 55.281 22.599 74.765 13.017 19.526 29.865 34.073 50.486 43.453 19.858 9.231 40.889 13.846 63.014 13.846 14.467 0 29.685-2.563 45.613-7.563 15.761-4.644 30.351-12.062 43.741-22.208 10.09-7.32 18.504-16.291 25.239-26.852 11.096 17.351 25.728 30.744 43.873 40.01 21.679 11.07 44.783 16.613 69.214 16.613 21.364 0 42.204-4.886 62.453-14.55l.031-.015.03-.015c14.109-6.89 26.322-16.603 36.654-29.018l1.923 29.997.45 7.02h60.597z"/></svg>