<svg xmlns="http://www.w3.org/2000/svg" fill="none" viewBox="0 0 1000 1000"><path fill="#fff" stroke="#000" stroke-width="15" d="m316.999 289.211-3.75-6.495-6.495 3.75-52.103 30.082-6.495 3.75 3.75 6.495 99.645 172.59c15.637 27.084 22.788 50.733 22.372 71.147-.614 21.707-6.27 39.912-16.687 54.944-10.806 15.592-23.511 27.507-38.085 35.922-21.069 12.163-42.144 15.494-63.593 10.418l-.108-.026-.107-.022c-20.451-4.21-41.236-22.31-61.706-57.765L83.84 423.826l-3.75-6.495-6.496 3.75-52.102 30.082-6.496 3.75 3.75 6.495 120.326 208.411c16.787 29.074 36.983 50.12 60.822 62.422 23.058 12.371 47.467 17.368 73.052 14.892 25.573-2.017 50.529-10.127 74.816-24.149 23.017-13.289 41.759-30.135 56.089-50.559 10.129-14.434 16.707-30.523 19.798-48.166L526.4 802.23l3.75 6.495 6.495-3.75 52.103-30.081 6.495-3.75-3.75-6.496z"/><path fill="#fff" stroke="#000" stroke-width="15" d="m707.24 63.915-3.75-6.495-6.496 3.75-45.59 26.321-6.495 3.75 3.75 6.495 87.848 152.157c13.173 22.817 19.157 42.975 18.791 60.649-.379 18.309-4.863 33.574-13.147 46.12l-.024.036-.023.036c-8.826 13.704-18.951 23.659-30.274 30.196-17.588 10.155-34.987 13.225-52.504 9.685-16.519-3.337-32.228-16.15-46.61-41.059L510.063 177.755l-3.75-6.495-6.495 3.75-45.59 26.321-6.495 3.75 3.75 6.495 90.15 156.146c11.377 19.705 17.05 37.949 17.539 54.822.116 17.391-3.889 32.664-11.861 46.035-8.092 13.574-18.948 24.276-32.657 32.191-17.588 10.155-34.987 13.225-52.505 9.685-7.77-1.57-14.348-5.771-20.938-12.976-6.728-7.355-13.138-17.468-20.59-30.374L317.69 288.822l-3.693-6.396-6.451 3.593-53.391 29.731-6.655 3.706 3.809 6.597 105.99 183.581c15.315 26.525 35.962 43.07 56.954 53.449 21.036 10.401 42.9 14.575 65.448 12.388 21.813-1.935 42.334-8.454 61.495-19.516 12.529-7.234 24.426-17.062 35.721-29.356 11.327-11.903 20.253-25.621 26.776-41.103 5.079-11.385 7.88-23.361 8.432-35.874 18.285 9.478 37.653 13.761 58 12.713 24.309-1.253 47.09-8.004 68.247-20.22 18.502-10.682 34.108-25.333 46.812-43.828l.019-.027.019-.028c8.773-13.022 14.494-27.541 17.234-43.458l16.664 25.017 3.899 5.855 6.093-3.518 39.891-23.031 6.495-3.75-3.75-6.495z"/></svg>