<svg xmlns="http://www.w3.org/2000/svg" fill="none" viewBox="0 0 1000 1000"><path fill="#fff" stroke="#000" stroke-width="15" d="m519.628 221.539 1.941-7.245-7.245-1.941-58.113-15.571-7.244-1.941-1.941 7.244-51.58 192.5c-8.094 30.208-19.761 51.986-34.49 66.127-15.783 14.916-32.655 23.789-50.65 27.052-18.666 3.385-36.076 2.826-52.331-1.53-23.499-6.296-40.757-18.844-52.334-37.6l-.058-.094-.06-.092c-11.484-17.438-13.383-44.933-2.787-84.479l56.836-212.112 1.941-7.244-7.245-1.942-58.113-15.571-7.244-1.941-1.941 7.244-62.286 232.452c-8.689 32.429-9.289 61.592-1.132 87.147 7.557 25.052 21.284 45.845 41.125 62.186 19.51 16.657 42.891 28.568 69.979 35.827 25.673 6.879 50.837 8.219 75.412 3.911 17.369-3.045 33.397-9.771 48.057-20.06l-53.188 198.5-1.941 7.245 7.245 1.941 58.113 15.571 7.244 1.941 1.941-7.244z"/><path fill="#fff" stroke="#000" stroke-width="15" d="m954.877 338.174 1.941-7.245-7.244-1.941-50.849-13.625-7.245-1.941-1.941 7.244-45.473 169.709c-6.819 25.449-16.842 43.934-29.599 56.173-13.213 12.678-27.178 20.301-41.908 23.315l-.041.009-.042.009c-15.932 3.449-30.13 3.329-42.759-.055-19.618-5.256-34.091-15.388-43.975-30.278-9.32-14.04-11.369-34.208-3.924-61.991l53.137-198.311 1.941-7.245-7.244-1.941-50.849-13.625-7.245-1.941-1.941 7.245-46.665 174.157c-5.889 21.979-14.778 38.89-26.364 51.168-12.215 12.378-25.847 20.346-40.938 24.164-15.321 3.876-30.565 3.767-45.855-.33-19.617-5.256-34.091-15.388-43.975-30.278-4.384-6.605-6.064-14.226-5.63-23.981.443-9.958 3.062-21.642 6.919-36.037l53.281-198.849 1.912-7.133-7.103-2.021-58.776-16.73-7.326-2.085-1.971 7.357-54.865 204.758c-7.927 29.585-5.026 55.885 2.478 78.067 7.52 22.229 20.029 40.641 37.52 55.038 16.792 14.056 35.912 23.957 57.283 29.684 13.974 3.744 29.336 5.207 46.016 4.5 16.425-.407 32.438-3.795 47.998-10.13 11.641-4.459 22.09-10.947 31.329-19.405 6.227 19.632 16.894 36.356 32.022 50.002 18.076 16.304 38.958 27.637 62.556 33.961 20.637 5.529 42.031 6.204 64.092 2.11l.033-.007.033-.006c15.412-3.004 29.723-9.225 42.915-18.543l-5.906 29.473-1.382 6.897 6.795 1.821 44.492 11.922 7.245 1.941 1.941-7.244z"/></svg>