<svg xmlns="http://www.w3.org/2000/svg" fill="none" viewBox="0 0 1000 1000"><path fill="#fff" stroke="#000" stroke-width="15" d="m591.022 236.102 3.75-6.495-6.495-3.75-52.103-30.082-6.495-3.75-3.75 6.495-99.645 172.591c-15.637 27.083-32.542 45.1-50.429 54.948-19.106 10.322-37.7 14.526-55.926 13.02-18.907-1.562-35.578-6.608-50.152-15.022-21.068-12.164-34.491-28.751-40.819-49.864l-.032-.106-.034-.104c-6.58-19.816-1.298-46.866 19.173-82.321l109.797-190.175 3.75-6.495-6.495-3.75-52.103-30.082-6.495-3.75-3.75 6.495-120.326 208.411c-16.786 29.075-24.914 57.088-23.649 83.884.815 26.155 8.693 49.792 23.629 70.711 14.534 21.139 34.035 38.696 58.322 52.718 23.018 13.289 46.978 21.097 71.83 23.296 17.565 1.554 34.787-.794 51.612-6.938L251.435 673.958l-3.75 6.495 6.495 3.75 52.103 30.081 6.495 3.75 3.75-6.495z"/><path fill="#fff" stroke="#000" stroke-width="15" d="m981.255 461.415 3.75-6.495-6.495-3.75-45.59-26.322-6.496-3.75-3.75 6.496-87.847 152.156c-13.174 22.817-27.639 38.078-43.129 46.599-16.044 8.826-31.506 12.574-46.514 11.674l-.043-.003-.042-.002c-16.282-.792-29.965-4.582-41.288-11.119-17.589-10.155-28.947-23.688-34.64-40.628-5.369-15.975-2.128-35.986 12.254-60.895l102.653-177.801 3.75-6.495-6.495-3.75-45.59-26.321-6.495-3.75-3.75 6.495-90.151 156.145c-11.377 19.706-24.339 33.74-38.708 42.601-15.003 8.795-30.232 12.963-45.798 12.745-15.802-.221-30.498-4.272-44.207-12.186-17.588-10.155-28.946-23.688-34.639-40.628-2.526-7.515-2.176-15.311.768-24.622 3.005-9.503 8.559-20.112 16.01-33.018l102.932-178.283 3.692-6.395-6.337-3.791-52.443-31.372-6.537-3.91-3.809 6.596-105.99 183.581c-15.315 26.526-19.319 52.679-17.812 76.048 1.511 23.419 8.828 44.44 21.996 62.874 12.582 17.923 28.488 32.436 47.649 43.498 12.529 7.234 26.989 12.623 43.283 16.257 15.972 3.858 32.315 4.73 48.985 2.638 12.398-1.294 24.171-4.857 35.283-10.635.935 20.575 6.91 39.489 17.991 56.585 13.239 20.427 30.477 36.779 51.634 48.995 18.502 10.682 38.993 16.871 61.362 18.626l.034.003.033.002c15.664 1.087 31.098-1.218 46.252-6.804l-13.333 26.94-3.12 6.305 6.092 3.517 39.891 23.031 6.495 3.75 3.75-6.495z"/></svg>