<svg xmlns="http://www.w3.org/2000/svg" fill="none" viewBox="0 0 1000 1000"><path fill="#fff" stroke="#000" stroke-width="15" d="m731.317 656.18 5.304 5.303 5.303-5.303 42.542-42.542 5.303-5.303-5.303-5.304-140.92-140.919c-22.114-22.114-35.141-43.106-40.023-62.933-5.026-21.126-4.274-40.174 1.897-57.39 6.402-17.858 15.591-32.655 27.491-44.555 17.202-17.202 36.698-25.874 58.73-26.522l.11-.003.11-.007c20.844-1.226 45.604 10.877 74.553 39.826l155.278 155.277 5.303 5.304 5.303-5.304 42.542-42.541 5.303-5.304-5.303-5.303L804.673 242.49c-23.739-23.739-48.695-38.84-74.905-44.553-25.474-5.982-50.345-4.491-74.417 4.522-24.18 8.568-46.186 22.86-66.016 42.69-18.794 18.794-32.537 39.917-41.093 63.354-6.047 16.563-8.237 33.807-6.657 51.648L396.273 214.839l-5.304-5.304-5.303 5.304-42.542 42.541-5.303 5.304 5.303 5.303z"/><path fill="#fff" stroke="#000" stroke-width="15" d="m412.685 974.798 5.304 5.303 5.303-5.303 37.224-37.224 5.303-5.304-5.303-5.303-124.235-124.235c-18.63-18.63-29.627-36.553-33.849-53.72-4.372-17.782-3.991-33.687.763-47.951l.014-.04.013-.041c4.978-15.522 12.181-27.758 21.426-37.003 14.361-14.361 30.372-21.829 48.209-22.944 16.82-1.051 35.31 7.259 55.649 27.597l145.173 145.174 5.304 5.303 5.303-5.303 37.224-37.224 5.303-5.304-5.303-5.303-127.492-127.492c-16.09-16.089-26.291-32.243-31.131-48.415-4.613-16.768-4.697-32.557-.458-47.536 4.304-15.206 12.02-28.353 23.213-39.547 14.361-14.361 30.372-21.829 48.209-22.944 7.913-.494 15.353 1.861 23.584 7.115 8.402 5.363 17.211 13.472 27.749 24.01l145.568 145.568 5.221 5.221 5.302-5.14 43.877-42.536 5.469-5.302-5.387-5.387-149.893-149.893c-21.658-21.658-45.884-32.295-68.846-36.887-23.012-4.602-45.211-2.975-66.425 4.974-20.569 7.514-38.704 19.122-54.348 34.767-10.23 10.229-19.178 22.802-26.906 37.6-7.86 14.429-12.932 29.99-15.226 46.633-1.959 12.311-1.565 24.604 1.141 36.834-20.116-4.423-39.932-3.547-59.314 2.732-23.157 7.502-43.414 19.919-60.689 37.194-15.107 15.107-26.388 33.298-33.873 54.45l-.011.032-.011.032c-5.104 14.849-6.872 30.353-5.399 46.437l-22.571-19.851-5.282-4.646-4.975 4.974-32.571 32.571-5.303 5.303 5.303 5.304z"/></svg>