<svg xmlns="http://www.w3.org/2000/svg" fill="none" viewBox="0 0 1000 1000"><path fill="#fff" stroke="#000" stroke-width="15" d="m268.687 343.754-5.304-5.303-5.303 5.303-42.542 42.542-5.303 5.303 5.303 5.303 140.92 140.92c22.113 22.113 35.141 43.106 40.023 62.932 5.026 21.126 4.274 40.175-1.897 57.39-6.402 17.858-15.591 32.656-27.491 44.556-17.202 17.202-36.698 25.874-58.73 26.522l-.11.003-.11.006c-20.844 1.227-45.604-10.876-74.554-39.826L78.312 534.128l-5.303-5.303-5.303 5.303-42.542 42.542-5.303 5.303 5.303 5.304L195.33 757.443c23.739 23.74 48.695 38.841 74.905 44.554 25.474 5.982 50.345 4.49 74.417-4.522 24.18-8.568 46.186-22.86 66.016-42.691 18.794-18.793 32.537-39.916 41.093-63.353 6.047-16.564 8.237-33.807 6.657-51.648L603.73 785.095l5.303 5.303 5.304-5.303 42.541-42.542 5.304-5.303-5.304-5.303z"/><path fill="#fff" stroke="#000" stroke-width="15" d="m587.319 25.136-5.304-5.303-5.303 5.303-37.224 37.224-5.303 5.303 5.303 5.303 124.235 124.236c18.63 18.63 29.627 36.552 33.848 53.719 4.373 17.783 3.992 33.688-.762 47.951l-.014.041-.013.04c-4.979 15.522-12.181 27.758-21.426 37.003-14.361 14.361-30.372 21.83-48.209 22.945-16.82 1.051-35.31-7.259-55.649-27.598L426.325 186.13l-5.304-5.304-5.303 5.304-37.224 37.224-5.303 5.303 5.303 5.303 127.492 127.493c16.09 16.089 26.291 32.243 31.131 48.415 4.613 16.768 4.697 32.557.458 47.536-4.304 15.206-12.02 28.353-23.213 39.546-14.361 14.361-30.372 21.83-48.209 22.945-7.913.494-15.353-1.862-23.584-7.115-8.402-5.363-17.211-13.473-27.749-24.011L269.252 343.202l-5.221-5.222-5.302 5.14-43.877 42.537-5.469 5.302 5.386 5.386 149.894 149.893c21.658 21.658 45.884 32.295 68.846 36.888 23.012 4.602 45.211 2.975 66.425-4.974 20.569-7.515 38.703-19.122 54.348-34.767 10.23-10.23 19.178-22.802 26.906-37.601 7.86-14.428 12.932-29.99 15.226-46.632 1.959-12.312 1.565-24.605-1.141-36.834 20.116 4.422 39.932 3.546 59.314-2.732 23.157-7.502 43.414-19.92 60.689-37.195 15.107-15.107 26.388-33.297 33.873-54.45l.011-.032.011-.031c5.104-14.849 6.872-30.353 5.399-46.438l22.571 19.852 5.282 4.646 4.975-4.974 32.571-32.572 5.303-5.303-5.303-5.303z"/></svg>