<svg xmlns="http://www.w3.org/2000/svg" fill="none" viewBox="0 0 1000 1000"><path fill="#fff" stroke="#000" stroke-width="15" d="M225.979 553.074h-7.5v75.163h206.79c31.274 0 55.33 5.632 72.801 16.199 18.492 11.385 31.43 25.386 39.239 41.923 8.101 17.155 12.067 34.116 12.067 50.944 0 24.328-7.654 44.245-22.774 60.283l-.076.08-.073.082c-13.872 15.606-39.938 24.556-80.879 24.556H218.479v75.163h248.152c33.573 0 61.897-6.968 84.47-21.462 22.243-13.783 38.775-32.424 49.423-55.818 11.04-23.156 16.495-48.823 16.495-76.867 0-26.579-5.219-51.232-15.741-73.855-7.436-15.988-18.081-29.729-31.814-41.228h213.003v-75.163z"/><path fill="#fff" stroke="#000" stroke-width="15" d="M225.987 102.469h-7.5v67.642h183.195c26.347 0 46.796 4.898 61.92 14.052 15.666 9.482 26.643 20.998 33.367 34.445l.019.038.019.038c7.456 14.497 11.015 28.242 11.015 41.317 0 20.309-6.041 36.912-17.865 50.312-11.15 12.637-30.101 19.836-58.864 19.836H218.487v67.642h187.801c22.754 0 41.39 4.209 56.247 12.222 15.119 8.595 26.343 19.701 33.937 33.29 7.709 13.795 11.55 28.548 11.55 44.377 0 20.31-6.041 36.912-17.865 50.313-5.245 5.945-12.172 9.54-21.707 11.645-9.733 2.149-21.697 2.644-36.6 2.644H218.602l-.114 7.384-.948 61.103-.118 7.616H437.02c30.629 0 55.281-9.609 74.765-22.598 19.526-13.018 34.073-29.865 43.453-50.487 9.231-19.857 13.846-40.888 13.846-63.013 0-14.467-2.563-29.685-7.563-45.613-4.644-15.761-12.061-30.351-22.207-43.741-7.32-10.091-16.292-18.504-26.853-25.239 17.352-11.096 30.744-25.729 40.01-43.873 11.07-21.679 16.613-44.783 16.613-69.214 0-21.364-4.886-42.204-14.55-62.454l-.015-.03-.014-.031c-6.891-14.108-16.604-26.322-29.019-36.653l29.997-1.923 7.021-.45v-60.597z"/></svg>