<svg xmlns="http://www.w3.org/2000/svg" fill="none" viewBox="0 0 1000 1000"><path fill="#fff" stroke="#000" stroke-width="15" d="m683.004 710.726 3.75 6.495 6.496-3.75 52.102-30.081 6.496-3.75-3.75-6.495-99.645-172.591c-15.637-27.083-22.788-50.732-22.372-71.147.614-21.707 6.27-39.912 16.687-54.943 10.805-15.593 23.511-27.508 38.085-35.922 21.068-12.164 42.144-15.495 63.593-10.418l.107.025.108.022c20.451 4.211 41.236 22.31 61.706 57.765l109.797 190.175 3.75 6.495 6.496-3.75 52.102-30.081 6.496-3.75-3.75-6.495-120.326-208.411c-16.787-29.075-36.983-50.12-60.822-62.423-23.058-12.371-47.467-17.367-73.052-14.892-25.574 2.018-50.529 10.127-74.816 24.15-23.017 13.289-41.759 30.135-56.09 50.558-10.128 14.435-16.706 30.524-19.797 48.166l-102.751-177.97-3.75-6.496-6.495 3.75-52.103 30.082-6.495 3.75 3.75 6.495z"/><path fill="#fff" stroke="#000" stroke-width="15" d="m292.764 936.022 3.75 6.496 6.496-3.75 45.59-26.322 6.495-3.75-3.75-6.495-87.848-152.156c-13.173-22.818-19.157-42.976-18.791-60.65.379-18.308 4.863-33.573 13.147-46.12l.024-.035.023-.036c8.826-13.705 18.951-23.66 30.273-30.197 17.589-10.154 34.987-13.224 52.505-9.685 16.518 3.338 32.228 16.15 46.61 41.06l102.653 177.801 3.75 6.495 6.495-3.75 45.59-26.322 6.495-3.75-3.75-6.495-90.15-156.145c-11.377-19.706-17.05-37.949-17.539-54.823-.116-17.39 3.889-32.664 11.861-46.034 8.092-13.575 18.948-24.277 32.657-32.192 17.588-10.154 34.987-13.224 52.505-9.685 7.77 1.57 14.347 5.772 20.938 12.977 6.728 7.354 13.138 17.468 20.59 30.374l102.931 178.283 3.693 6.395 6.451-3.593 53.391-29.731 6.655-3.706-3.809-6.596-105.99-183.581c-15.315-26.526-35.963-43.07-56.954-53.449-21.036-10.402-42.9-14.576-65.448-12.388-21.813 1.935-42.334 8.453-61.495 19.516-12.529 7.233-24.426 17.061-35.721 29.356-11.327 11.902-20.253 25.62-26.776 41.102-5.079 11.385-7.88 23.361-8.432 35.875-18.285-9.479-37.654-13.761-58-12.713-24.31 1.252-47.09 8.004-68.248 20.22-18.501 10.682-34.107 25.333-46.811 43.827l-.019.028-.019.028c-8.773 13.022-14.494 27.54-17.234 43.457l-16.664-25.017-3.9-5.854-6.092 3.517-39.891 23.031-6.495 3.75 3.75 6.495z"/></svg>