<svg width="1000" height="1000" viewBox="0 0 1000 1000" fill="none" xmlns="http://www.w3.org/2000/svg">
<path d="M563.82 833.633V843.633H573.82H647.095H657.095V833.633V590.91C657.095 552.914 663.94 523.79 676.699 502.693C690.49 480.294 707.422 464.663 727.389 455.235C748.179 445.417 768.71 440.622 789.066 440.622C818.494 440.622 842.535 449.871 861.893 468.123L862 468.224L862.109 468.322C880.834 484.966 891.727 516.395 891.727 566.18V833.633V843.633H901.727H975.002H985.002V833.633V540.534C985.002 499.531 976.492 464.861 958.73 437.193C941.856 409.966 919.026 389.716 890.378 376.675C862.049 363.171 830.662 356.506 796.394 356.506C763.907 356.506 733.754 362.885 706.078 375.757C687.186 384.544 670.861 396.984 657.095 412.935V165V155H647.095H573.82H563.82V165V833.633Z" fill="white" stroke="black" stroke-width="20"/>
<path d="M15 833.625V843.625H25H89.1158H99.1158V833.625V619.638C99.1158 587.647 105.063 562.913 116.104 544.672C127.583 525.707 141.495 512.463 157.704 504.358L157.755 504.333L157.805 504.307C175.362 495.278 191.968 490.988 207.73 490.988C232.278 490.988 252.289 498.283 268.435 512.53C283.563 525.878 292.301 548.665 292.301 583.573V833.625V843.625H302.301H366.417H376.417V833.625V614.028C376.417 586.424 381.522 563.879 391.194 545.942C401.591 527.657 415.006 514.108 431.403 504.945C448.077 495.628 465.899 490.988 485.031 490.988C509.579 490.988 529.59 498.283 545.736 512.53C552.802 518.764 557.11 527.016 559.647 538.506C562.242 550.259 562.847 564.746 562.847 582.895V833.625V843.471L572.692 843.624L647.112 844.777L657.267 844.935V834.779V576.598C657.267 539.1 645.499 508.911 629.597 485.058C613.659 461.15 593.018 443.324 567.75 431.83C543.45 420.534 517.711 414.887 490.641 414.887C472.921 414.887 454.301 418.025 434.835 424.135C415.542 429.821 397.684 438.901 381.298 451.315C369.282 460.034 359.206 470.66 351.073 483.119C337.57 462.411 319.88 446.371 298.033 435.215C271.506 421.67 243.232 414.887 213.34 414.887C187.183 414.887 161.674 420.869 136.903 432.692L136.862 432.712L136.822 432.731C120.149 440.874 105.643 452.228 93.2853 466.65L91.0808 432.262L90.4808 422.901H81.1013H25H15V432.901V833.625Z" fill="white" stroke="black" stroke-width="20"/>
</svg>
