<svg xmlns="http://www.w3.org/2000/svg" fill="none" viewBox="0 0 1000 1000"><path fill="#fff" stroke="#000" stroke-width="15" d="m480.376 778.399-1.941 7.244 7.244 1.941 58.114 15.572 7.244 1.941 1.941-7.245 51.58-192.499c8.094-30.208 19.761-51.987 34.49-66.128 15.783-14.915 32.655-23.788 50.65-27.051 18.666-3.385 36.076-2.826 52.331 1.53 23.498 6.296 40.757 18.844 52.334 37.6l.058.094.06.092c11.484 17.438 13.383 44.933 2.787 84.478l-56.836 212.113-1.941 7.244 7.245 1.941 58.113 15.572 7.244 1.941 1.941-7.245 62.286-232.452c8.689-32.428 9.289-61.591 1.132-87.146-7.557-25.053-21.284-45.846-41.125-62.186-19.51-16.657-42.891-28.569-69.979-35.827-25.673-6.879-50.837-8.219-75.412-3.911-17.369 3.045-33.397 9.77-48.057 20.059l53.188-198.5 1.941-7.244-7.245-1.941-58.113-15.572-7.244-1.941-1.941 7.244z"/><path fill="#fff" stroke="#000" stroke-width="15" d="m45.127 661.764-1.941 7.244 7.244 1.942 50.849 13.624 7.245 1.942 1.941-7.245 45.473-169.708c6.819-25.45 16.842-43.934 29.598-56.174 13.214-12.678 27.179-20.3 41.909-23.315l.041-.008.042-.009c15.932-3.449 30.13-3.33 42.759.054 19.617 5.257 34.091 15.389 43.975 30.278 9.32 14.041 11.369 34.209 3.924 61.992l-53.137 198.311-1.941 7.244 7.244 1.941 50.849 13.625 7.245 1.941 1.941-7.244 46.665-174.158c5.889-21.978 14.778-38.89 26.364-51.167 12.215-12.379 25.847-20.346 40.938-24.164 15.321-3.876 30.565-3.768 45.855.329 19.617 5.257 34.091 15.389 43.975 30.278 4.384 6.605 6.064 14.227 5.63 23.982-.444 9.957-3.062 21.642-6.919 36.037l-53.281 198.848-1.912 7.133 7.103 2.022 58.776 16.73 7.326 2.085 1.971-7.358 54.865-204.758c7.927-29.585 5.026-55.884-2.478-78.066-7.52-22.23-20.029-40.642-37.52-55.039-16.792-14.056-35.912-23.957-57.283-29.683-13.974-3.745-29.336-5.208-46.016-4.501-16.426.407-32.438 3.796-47.998 10.13-11.641 4.459-22.09 10.947-31.329 19.405-6.227-19.632-16.894-36.355-32.022-50.001-18.076-16.304-38.958-27.638-62.556-33.961-20.637-5.53-42.031-6.204-64.092-2.11l-.033.006-.033.007c-15.412 3.004-29.723 9.225-42.915 18.542l5.906-29.472 1.382-6.898-6.795-1.821-44.493-11.921-7.244-1.941-1.941 7.244z"/></svg>