<svg xmlns="http://www.w3.org/2000/svg" fill="none" viewBox="0 0 1000 1000"><path fill="#fff" stroke="#000" stroke-width="15" d="m377.783 249.028-1.941-7.245-7.245 1.941-58.113 15.572-7.244 1.941 1.941 7.244 51.58 192.5c8.094 30.208 8.88 54.902 3.195 74.513-6.211 20.808-16.386 36.929-30.338 48.752-14.474 12.265-29.83 20.485-46.086 24.841-23.498 6.296-44.718 4.059-64.122-6.396l-.097-.052-.098-.05c-18.665-9.36-34.057-32.222-44.653-71.767l-56.835-212.113-1.941-7.244-7.245 1.941-58.113 15.572-7.244 1.941 1.94 7.244 62.286 232.452c8.689 32.429 22.751 57.984 42.593 76.037 19.07 17.918 41.355 29.062 66.708 33.292 25.225 4.67 51.429 3.296 78.517-3.962 25.673-6.879 48.136-18.301 67.265-34.319 13.518-11.321 24.036-25.16 31.588-41.401l53.188 198.501 1.942 7.244 7.244-1.941 58.113-15.572 7.245-1.941-1.942-7.244z"/><path fill="#fff" stroke="#000" stroke-width="15" d="m813.038 132.412-1.941-7.244-7.245 1.941-50.849 13.625-7.244 1.941 1.941 7.245 45.473 169.708c6.819 25.45 7.382 46.469 2.454 63.447-5.104 17.586-13.387 31.17-24.636 41.145l-.032.028-.032.029c-12.072 10.953-24.428 17.949-37.057 21.332-19.618 5.257-37.218 3.719-53.222-4.234-15.092-7.499-26.95-23.941-34.395-51.724L593.116 191.34l-1.941-7.244-7.245 1.941-50.849 13.625-7.244 1.941 1.941 7.245 46.665 174.157c5.89 21.979 6.648 41.069 2.753 57.494-4.389 16.828-12.211 30.544-23.372 41.396-11.33 11.018-24.586 18.545-39.876 22.642-19.617 5.257-37.218 3.719-53.222-4.234-7.1-3.528-12.365-9.288-16.867-17.953-4.595-8.846-8.169-20.274-12.026-34.669l-53.282-198.848-1.911-7.133-7.162 1.8-59.266 14.9-7.387 1.857 1.971 7.358 54.865 204.757c7.927 29.586 23.589 50.911 41.179 66.369 17.628 15.492 37.666 25.182 60.012 28.905 21.571 3.777 43.08 2.792 64.451-2.935 13.974-3.744 28.01-10.158 42.101-19.11 14.022-8.566 26.195-19.506 36.503-32.772 7.852-9.683 13.657-20.526 17.429-32.47 15.209 13.888 32.809 23.038 52.733 27.291 23.806 5.082 47.557 4.457 71.156-1.867 20.636-5.529 39.501-15.642 56.559-30.218l.026-.022.025-.022c11.845-10.308 21.128-22.851 27.895-37.516l9.621 28.477 2.252 6.664 6.795-1.82 44.492-11.922 7.245-1.941-1.941-7.245z"/></svg>