<svg xmlns="http://www.w3.org/2000/svg" fill="none" viewBox="0 0 1000 1000"><path fill="#fff" stroke="#000" stroke-width="15" d="M774.025 446.863h7.5V371.7h-206.79c-31.274 0-55.33-5.632-72.802-16.199-18.491-11.385-31.429-25.386-39.238-41.923-8.101-17.154-12.067-34.115-12.067-50.944 0-24.327 7.653-44.245 22.774-60.282l.076-.08.073-.083c13.872-15.605 39.938-24.556 80.879-24.556h227.095V102.47H533.373c-33.573 0-61.897 6.968-84.471 21.462-22.242 13.783-38.774 32.424-49.422 55.819-11.04 23.156-16.495 48.823-16.495 76.867 0 26.578 5.219 51.232 15.741 73.854 7.436 15.989 18.081 29.73 31.814 41.228H217.537v75.163z"/><path fill="#fff" stroke="#000" stroke-width="15" d="M774.017 897.469h7.5v-67.643H598.322c-26.347 0-46.796-4.897-61.92-14.051-15.666-9.482-26.643-20.998-33.367-34.446l-.019-.038-.019-.038c-7.456-14.496-11.015-28.242-11.015-41.316 0-20.309 6.041-36.912 17.865-50.313 11.15-12.636 30.101-19.835 58.864-19.835h212.806v-67.643H593.716c-22.754 0-41.39-4.209-56.247-12.222-15.119-8.595-26.343-19.7-33.937-33.289-7.709-13.796-11.55-28.548-11.55-44.378 0-20.309 6.041-36.912 17.865-50.313 5.245-5.944 12.172-9.54 21.707-11.645 9.733-2.149 21.697-2.644 36.6-2.644h213.248l.114-7.383.948-61.104.118-7.616H562.984c-30.629 0-55.281 9.609-74.766 22.599-19.526 13.017-34.072 29.865-43.452 50.486-9.231 19.858-13.846 40.889-13.846 63.014 0 14.467 2.563 29.685 7.563 45.613 4.644 15.761 12.061 30.35 22.207 43.74 7.32 10.091 16.292 18.505 26.852 25.24-17.351 11.096-30.744 25.728-40.009 43.872-11.07 21.68-16.613 44.784-16.613 69.215 0 21.364 4.886 42.204 14.55 62.453l.015.031.014.03c6.891 14.109 16.604 26.322 29.019 36.654l-29.998 1.923-7.02.45v60.597z"/></svg>