<svg xmlns="http://www.w3.org/2000/svg" width="933.333" height="933.333" version="1.0" viewBox="0 0 700 700"><path d="M381 213c0 45.1-.3 82-.7 82-.5 0-4.4-1-8.8-2.1-11.7-3-36.6-3.5-49-.9-14.7 3.1-27.7 7.9-38 13.8-7.7 4.5-18.2 12.5-22 16.8l-3 3.4-7-6.7c-16.8-15.9-38.5-25.6-64.5-28.8-6-.7-22-.7-26-.1-1.4.3-4.1.7-6 1-15.8 2.5-37.3 11.4-45.7 18.9l-2.3 2-.1-2.9c-.1-1.6-.2-4.3-.4-5.9-.1-1.7-.3-4.4-.4-6l-.1-3-29.7.1c-16.4.1-30.3.2-30.8.3-.7.1-1 45.7-.9 135.8.1 74.7.2 136.1.3 136.4 0 .3 15.1.5 33.4.5l33.2-.1.1-77.5c.1-67.5.4-78.7 1.8-87 4.5-25.3 21.5-43.8 45.5-49.4 7.6-1.8 19.6-1.4 27.3.9 5.8 1.6 14.6 7 18.1 10.9 3.3 3.8 7.5 14 8.6 21.3.7 4.8 1.1 35.4 1.1 94.1v86.8h67.5l-.1-78.3c0-43.1.3-80.7.7-83.5 1.5-9.6 2-11.6 4.3-17.7 8.2-20.8 28-34.9 50.1-35.6 15.3-.5 27.4 3.4 35.3 11.3 3.9 3.9 5.7 8.2 6.8 16.7.4 2.8.8 45.7.9 95.5.2 49.8.3 90.8.4 91.2 0 .4 10.3.8 22.9.8 12.5.1 28.9.3 36.5.4l13.7.2.1-87.5c.1-48.2.3-89 .4-90.6 2.3-28.6 16.9-51.4 39.5-61.7 25.7-11.8 53.7-9.2 70.8 6.7 9.4 8.6 14.2 20.9 16 40 .3 3.8.6 48.5.6 99.2.1 50.8.3 92.4.6 92.5.3 0 16.6.2 36.3.3 31.8.1 35.7 0 35.8-1.4.5-8.2 0-201.4-.5-206.9-.4-4.1-1.1-9.5-1.6-12-.5-2.6-1.1-5.8-1.4-7.2-.8-5.3-5.9-18.9-9.8-26.2-17.1-32-45.9-51.1-88.3-58.3-6-1.1-31.2-1.4-37.5-.5-11.9 1.7-14.6 2.2-18.5 3.2-14.3 3.7-28.6 9.9-37.7 16.4L454 278v-2.8c-.1-1.5-.1-34.5-.1-73.5V131H381z"/></svg>