<?xml version="1.0" standalone="no"?>
<!DOCTYPE svg PUBLIC "-//W3C//DTD SVG 20010904//EN"
 "http://www.w3.org/TR/2001/REC-SVG-20010904/DTD/svg10.dtd">
<svg version="1.0" xmlns="http://www.w3.org/2000/svg"
 width="700.000000pt" height="700.000000pt" viewBox="0 0 700.000000 700.000000"
 preserveAspectRatio="xMidYMid meet">
<g transform="translate(0.000000,700.000000) scale(0.100000,-0.100000)"
fill="#000000" stroke="none">
<path d="M3810 4870 c0 -451 -3 -820 -7 -820 -5 0 -44 10 -88 21 -117 30 -366
35 -490 9 -147 -31 -277 -79 -380 -138 -77 -45 -182 -125 -220 -168 l-30 -34
-70 67 c-168 159 -385 256 -645 288 -60 7 -220 7 -260 1 -14 -3 -41 -7 -60
-10 -158 -25 -373 -114 -457 -189 l-23 -20 -1 29 c-1 16 -2 43 -4 59 -1 17 -3
44 -4 60 l-1 30 -297 -1 c-164 -1 -303 -2 -308 -3 -7 -1 -10 -457 -9 -1358 1
-747 2 -1361 3 -1364 0 -3 151 -5 334 -5 l332 1 1 775 c1 675 4 787 18 870 45
253 215 438 455 494 76 18 196 14 273 -9 58 -16 146 -70 181 -109 33 -38 75
-140 86 -213 7 -48 11 -354 11 -941 l0 -868 338 0 337 0 -1 783 c0 431 3 807
7 835 15 96 20 116 43 177 82 208 280 349 501 356 153 5 274 -34 353 -113 39
-39 57 -82 68 -167 4 -28 8 -457 9 -955 2 -498 3 -908 4 -912 0 -4 103 -8 229
-8 125 -1 289 -3 365 -4 l137 -2 1 875 c1 482 3 890 4 906 23 286 169 514 395
617 257 118 537 92 708 -67 94 -86 142 -209 160 -400 3 -38 6 -485 6 -992 1
-508 3 -924 6 -925 3 0 166 -2 363 -3 318 -1 357 0 358 14 5 82 0 2014 -5
2069 -4 41 -11 95 -16 120 -5 26 -11 58 -14 72 -8 53 -59 189 -98 262 -171
320 -459 511 -883 583 -60 11 -312 14 -375 5 -119 -17 -146 -22 -185 -32 -143
-37 -286 -99 -377 -164 l-48 -34 0 28 c-1 15 -1 345 -1 735 l0 707 -365 0
-364 0 0 -820z"/>
</g>
</svg>
